<svg width="58" height="38" viewBox="0 0 58 38" fill="none" xmlns="http://www.w3.org/2000/svg">
<g clip-path="url(#clip0_4008_1448)">
<path d="M40.6514 14.7862C40.3916 14.4233 40.043 14.2418 39.6055 14.2418H11.7559L11 12.274C10.8086 11.6289 10.5488 11.0778 10.2207 10.6208C9.89258 10.1638 9.54395 9.84123 9.1748 9.65306C8.80566 9.46489 8.48438 9.3372 8.21094 9.27C7.9375 9.20279 7.66406 9.16919 7.39062 9.16919H1.77148C1.41602 9.16919 1.11523 9.29016 0.869141 9.53209C0.623047 9.77403 0.5 10.0832 0.5 10.4595C0.5 10.6746 0.554688 10.8829 0.664062 11.0845C0.773438 11.2861 0.930664 11.4407 1.13574 11.5482C1.34082 11.6557 1.55273 11.7095 1.77148 11.7095H7.39062C7.5 11.7095 7.60254 11.723 7.69824 11.7498C7.79395 11.7767 7.92383 11.891 8.08789 12.0926C8.25195 12.2942 8.38867 12.5966 8.49805 12.9998L14.3809 29.1531C14.4355 29.3143 14.5244 29.4689 14.6475 29.6168C14.7705 29.7646 14.9141 29.8789 15.0781 29.9595C15.2422 30.0402 15.4199 30.0805 15.6113 30.0805H33.3301C33.6035 30.0805 33.8564 29.9998 34.0889 29.8385C34.3213 29.6773 34.4785 29.4756 34.5605 29.2337L40.8359 15.9757C40.9727 15.5456 40.9111 15.1491 40.6514 14.7862ZM32.4277 27.4998H16.6367L12.4531 16.8225H37.7188L32.4277 27.4998ZM30.0625 31.4798C29.1602 31.4798 28.3877 31.7957 27.7451 32.4274C27.1025 33.0591 26.7812 33.8186 26.7812 34.7057C26.7812 35.5928 27.1025 36.3522 27.7451 36.9839C28.3877 37.6156 29.1602 37.9315 30.0625 37.9315C30.9648 37.9315 31.7373 37.6156 32.3799 36.9839C33.0225 36.3522 33.3438 35.5928 33.3438 34.7057C33.3438 33.8186 33.0225 33.0591 32.3799 32.4274C31.7373 31.7957 30.9648 31.4798 30.0625 31.4798ZM18.25 31.4798C17.6484 31.4798 17.0947 31.6277 16.5889 31.9234C16.083 32.2191 15.6865 32.6089 15.3994 33.0927C15.1123 33.5766 14.9688 34.1143 14.9688 34.7057C14.9688 35.5928 15.29 36.3522 15.9326 36.9839C16.5752 37.6156 17.3477 37.9315 18.25 37.9315C19.1523 37.9315 19.9248 37.6156 20.5674 36.9839C21.21 36.3522 21.5312 35.5928 21.5312 34.7057C21.5312 34.4906 21.5107 34.2755 21.4697 34.0605C21.4287 33.8454 21.3672 33.6438 21.2852 33.4557C21.2031 33.2675 21.1006 33.086 20.9775 32.9113C20.8545 32.7366 20.7178 32.5753 20.5674 32.4274C20.417 32.2796 20.2529 32.1452 20.0752 32.0242C19.8975 31.9032 19.7129 31.8024 19.5215 31.7218C19.3301 31.6411 19.125 31.5806 18.9062 31.5403C18.6875 31.5 18.4688 31.4798 18.25 31.4798Z" fill="#3F4E65"/>
<path d="M44 26.5C50.9036 26.5 56.5 20.9036 56.5 14C56.5 7.09644 50.9036 1.5 44 1.5C37.0964 1.5 31.5 7.09644 31.5 14C31.5 20.9036 37.0964 26.5 44 26.5Z" fill="#FFC85E" stroke="white" stroke-width="3"/>
</g>
<defs>
<clipPath id="clip0_4008_1448">
<rect width="58" height="38" fill="white"/>
</clipPath>
</defs>
</svg>
